<svg xmlns="http://www.w3.org/2000/svg" xmlns:xlink="http://www.w3.org/1999/xlink" 
viewBox="0,0,256,256" width="48px" height="48px"><g fill="white" fill-rule="nonzero" stroke="none" stroke-width="1" stroke-linecap="butt" stroke-linejoin="miter" stroke-miterlimit="10" stroke-dasharray="" stroke-dashoffset="0" font-family="none" font-weight="none" font-size="none" text-anchor="none" style="mix-blend-mode: normal"><g transform="scale(5.33333,5.33333)"><path d="M23.27734,4.01758c-8.08348,0.38074 -14.27734,7.32581 -14.27734,15.36328v7.26758l-2.65039,5.33203c-0.00466,0.00972 -0.00922,0.01948 -0.01367,0.0293c-1.06626,2.2675 0.65977,4.99023 3.16602,4.99023h8.49805c0,3.29586 2.70414,6 6,6c3.29586,0 6,-2.70414 6,-6h8.49609c2.50624,0 4.23449,-2.72217 3.16797,-4.99023c-0.00445,-0.00981 -0.00901,-0.01958 -0.01367,-0.0293l-2.65039,-5.33203v-7.64844c0,-8.5062 -7.13671,-15.38664 -15.72266,-14.98242zM23.41797,7.01367c6.92006,-0.32579 12.58203,5.14853 12.58203,11.98633v8c-0.00021,0.23174 0.05327,0.46037 0.15625,0.66797l2.79297,5.62109c0.17961,0.38495 -0.0282,0.71094 -0.45312,0.71094h-28.99414c-0.42493,0 -0.63105,-0.32543 -0.45117,-0.71094v-0.00195l2.79297,-5.61914c0.10298,-0.2076 0.15646,-0.43623 0.15625,-0.66797v-7.61914c0,-6.50053 4.97945,-12.06393 11.41797,-12.36719zM21,37h6c0,1.67413 -1.32587,3 -3,3c-1.67413,0 -3,-1.32587 -3,-3z"></path></g></g></svg>