  <svg class="svg" xmlns="http://www.w3.org/2000/svg" width="20" height="20" viewBox="0 0 20 20"><path fill="white" fill-opacity=".8" fill-rule="evenodd" stroke="none" d="M10 18.75c4.832 0 8.75-3.918 8.75-8.75 0-4.832-3.918-8.75-8.75-8.75-4.832 0-8.75 3.918-8.75 8.75 0 4.832 3.918 8.75 8.75 8.75zM10 20c5.523 0 10-4.477 10-10 0-5.523-4.477-10-10-10C4.477 0 0 4.477 0 10c0 5.523 4.477 10 10 10zm0-15.124-.442.442-3.75 3.75.884.884 2.683-2.683v7.866h1.25V7.269l2.683 2.683.884-.884-3.75-3.75L10 4.876z"></path></svg>
