<svg width="327" height="171" viewBox="0 0 327 171" fill="none" xmlns="http://www.w3.org/2000/svg" class="validate_email_2024_brand_updates--emailSvgIllustration--4uW17"><path d="M150.307 98.3306C150.307 56.8246 116.66 23.1774 75.1535 23.1774C33.6474 23.1774 3.62858e-06 56.8246 0 98.3306L0.000178201 170.564H69.3726L69.3726 101.191L80.9345 101.191V124.315C80.9345 149.857 101.641 170.563 127.183 170.563L327 170.563V101.191L150.307 101.191V98.3306Z" fill="#95B9AC"></path><rect width="114" height="114" transform="translate(112.863 20.1541)" fill="#0A5C35"></rect><rect x="113" y="20" width="114" height="114" rx="55" fill="#FF7237"></rect><path fill-rule="evenodd" clip-rule="evenodd" d="M142.54 77.3348L142.54 82.7634L196.825 82.7634V77.3348L142.54 77.3348ZM142.54 82.7634C142.54 97.737 154.709 109.906 169.682 109.906C184.656 109.906 196.825 97.737 196.825 82.7634L142.54 82.7634Z" fill="#FFC9C1"></path><rect x="142.54" y="55.6204" width="10.8571" height="10.8571" fill="#FFC9C1"></rect><rect x="185.968" y="55.6204" width="10.8571" height="10.8571" fill="#FFC9C1"></rect><rect x="93" y="134" width="20.1541" height="20.154" fill="#874FFF"></rect><rect x="227" y="134" width="20.1541" height="20.154" fill="#874FFF"></rect><rect x="93" width="20" height="19.9999" fill="#874FFF"></rect><rect x="227" width="20" height="19.9999" fill="#874FFF"></rect></svg>